<svg width="33" height="33" viewBox="0 0 33 33" fill="none" xmlns="http://www.w3.org/2000/svg">
<g clip-path="url(#clip0_5_29431)">
<path fill-rule="evenodd" clip-rule="evenodd" d="M25.5121 18.0321C25.4707 13.8543 28.9196 11.8494 29.0737 11.7502C27.1352 8.91458 24.1151 8.52482 23.0389 8.48099C20.4689 8.22152 18.0249 9.99497 16.7192 9.99497C15.4171 9.99497 13.4049 8.51992 11.274 8.55895C8.4731 8.60035 5.89085 10.188 4.44695 12.6966C1.53702 17.7453 3.70264 25.2282 6.53889 29.322C7.92438 31.3269 9.57664 33.579 11.7465 33.4986C13.8354 33.4164 14.626 32.1454 17.1528 32.1454C19.679 32.1454 20.3885 33.4986 22.5998 33.4554C24.8483 33.414 26.2727 31.4116 27.6491 29.4C29.2417 27.0735 29.8945 24.8238 29.9341 24.7081C29.8842 24.6856 25.5498 23.0254 25.506 18.0339L25.5121 18.0321H25.5121ZM21.3587 5.76839C22.5097 4.37192 23.2874 2.43343 23.0749 0.498596C21.4165 0.566195 19.4055 1.60394 18.215 2.9986C17.1461 4.23672 16.2125 6.20992 16.4622 8.10515C18.3142 8.24952 20.2052 7.16424 21.3568 5.77081L21.3587 5.76839Z" fill="white"/>
</g>
<defs>
<clipPath id="clip0_5_29431">
<rect width="33" height="33" fill="white"/>
</clipPath>
</defs>
</svg>
