<svg width="31" height="33" viewBox="0 0 31 33" fill="none" xmlns="http://www.w3.org/2000/svg">
<path d="M12.8855 15.3274L0.0913086 30.3051C0.556671 31.8888 2.03526 33 3.68787 33C4.40719 33 5.03691 32.8201 5.57639 32.4605L21.3136 23.4714L12.8855 15.3274Z" fill="#EA4335"/>
<path d="M27.968 13.2198L21.2228 9.35245L14.0291 16.4568L21.3131 23.4716L28.0576 19.6944C29.2268 19.0647 30.0363 17.8059 30.0363 16.4568C29.9461 15.1077 29.1372 13.8489 27.968 13.2198Z" fill="#FBBC04"/>
<path d="M12.8546 17.6255L21.224 9.35259L5.66663 0.539498C5.12714 0.179833 4.40719 0 3.68787 0C1.97983 0 0.450965 1.16923 0.0913086 2.69814L12.8546 17.6255Z" fill="#34A853"/>
<path d="M0.0895918 2.69821C0 2.96764 0 3.32795 0 3.68697V29.3173C0 29.6763 0 29.9464 0.0902364 30.3061L14.0298 16.457L0.0895918 2.69821Z" fill="#4285F4"/>
</svg>
